HIERARCHY
ROOT Hips
{
   OFFSET 0.00000 0.00000 0.00000
   CHANNELS 6 Xposition Yposition Zposition Zrotation Xrotation Yrotation
   JOINT RightUpLeg
   {
      OFFSET -9.840380 -9.533777 0.111817
      CHANNELS 3 Zrotation Xrotation Yrotation
      JOINT RightLeg
      {
         OFFSET 0.000000 -48.864969 1.509970
         CHANNELS 3 Zrotation Xrotation Yrotation
         JOINT RightFoot
         {
            OFFSET 0.278904 -46.301641 -1.606649
            CHANNELS 3 Zrotation Xrotation Yrotation
            JOINT RightToes
            {
               OFFSET 0.044000 -4.856599 9.349010
               CHANNELS 3 Zrotation Xrotation Yrotation
               End Site
               {
                  OFFSET -0.088000 -0.151193 10.757769
               }
            }
         }
      }
   }
   JOINT Spine
   {
      OFFSET 0.000000 13.079551 0.000000
      CHANNELS 3 Zrotation Xrotation Yrotation
      JOINT Spine1
      {
         OFFSET 0.000000 28.223142 0.140429
         CHANNELS 3 Zrotation Xrotation Yrotation
         JOINT HEad
         {
            OFFSET 0.000000 9.607577 0.012475
            CHANNELS 3 Zrotation Xrotation Yrotation
            End Site
            {
               OFFSET -0.319000 14.051621 2.765345
            }
         }
         JOINT LeftShoulder1
         {
            OFFSET 9.889000 -0.398477 -0.242000
            CHANNELS 3 Zrotation Xrotation Yrotation
            JOINT LeftArm
            {
               OFFSET 11.310971 -0.003718 0.354335
               CHANNELS 3 Zrotation Xrotation Yrotation
               JOINT LeftForeArm
               {
                  OFFSET 36.043591 0.109058 -1.566774
                  CHANNELS 3 Zrotation Xrotation Yrotation
                  JOINT LeftHand
                  {
                     OFFSET 30.320732 0.093898 1.124376
                     CHANNELS 3 Zrotation Xrotation Yrotation
                     End Site
                     {
                        OFFSET 18.418731 -0.660000 1.653201
                     }
                  }
               }
            }
         }
         JOINT RightShoulder
         {
            OFFSET -9.889000 -0.398477 -0.242000
            CHANNELS 3 Zrotation Xrotation Yrotation
            JOINT RightArm
            {
               OFFSET -11.310971 -0.003718 0.354335
               CHANNELS 3 Zrotation Xrotation Yrotation
               JOINT RightForeArm
               {
                  OFFSET -36.186809 0.109058 -1.566774
                  CHANNELS 3 Zrotation Xrotation Yrotation
                  JOINT RightHand
                  {
                     OFFSET -30.241313 0.093898 1.124376
                     CHANNELS 3 Zrotation Xrotation Yrotation
                     End Site
                     {
                        OFFSET -18.294322 -0.660000 1.653201
                     }
                  }
               }
            }
         }
      }
   }
   JOINT LeftUpLeg
   {
      OFFSET 9.840380 -9.533777 0.111817
      CHANNELS 3 Zrotation Xrotation Yrotation
      JOINT LeftLeg
      {
         OFFSET 0.000000 -48.864969 1.509970
         CHANNELS 3 Zrotation Xrotation Yrotation
         JOINT LeftFoot
         {
            OFFSET -0.278904 -46.301641 -1.606649
            CHANNELS 3 Zrotation Xrotation Yrotation
            JOINT LeftToes
            {
               OFFSET -0.044000 -4.856599 9.349010
               CHANNELS 3 Zrotation Xrotation Yrotation
               End Site
               {
                  OFFSET 0.088000 -0.052193 10.757769
               }
            }
         }
      }
   }
}
MOTION
Frames: 17
Frame Time: 0.016667
44.5513 95.4152 -121.492 -0.274774 0.729082 -17.6365 -10.7626 -13.1982 -9.2905 -23.5066 50.0724 17.318 25.2477 0.181693 1.62171 0.0462049 0.000533403 0.662642 -1.17938 17.201 5.21515 -4.72865e-007 0.0143599 -4.74755e-009 -16.5354 7.98525 25.0713 7.95139e-016 -3.18055e-015 -0 170.965 -25.3643 -168.33 -125.785 35.2949 -2.08182 6.77544 29.18 -1.91421 7.94453 6.24919 7.93864 128.198 -17.6443 99.8499 102.696 50.3773 12.463 -5.17617 30.4444 1.16341 -12.3094 -35.313 5.88062 38.5226 34.6333 -33.0635 30.4452 -2.80454 1.6126 -3.36951e-008 1.56033e-007 -4.88727e-009 
43.433 93.8614 -122.379 -0.225965 0.437794 -17.6583 -9.81826 -14.954 -9.89417 -23.4773 55.8812 16.2167 15.7862 -0.298373 0.657547 0.0462049 0.000533403 0.662642 -1.33312 17.9347 5.59443 -4.72865e-007 0.0143599 -4.74756e-009 -16.1197 7.3536 24.4011 7.95139e-016 3.18055e-015 -1.59028e-015 170.649 -24.3789 -168.111 -126.93 34.713 -1.70795 6.9264 29.1218 -1.8762 7.74104 5.86696 7.4455 128.482 -18.2727 100.423 104.01 50.2809 12.2959 -5.26319 30.4677 1.06259 -10.017 -36.2486 6.05662 36.1549 36.7079 -32.7834 36.1633 -2.06979 1.66599 -3.36952e-008 1.56033e-007 -4.88728e-009 
41.8227 91.7303 -123.696 -0.368502 0.335008 -17.4974 -10.2439 -16.9946 -10.5249 -22.6891 62.6016 14.0953 14.1911 0.0429788 0.821568 0.0462049 0.000533403 0.662642 -1.54744 18.5723 5.96762 -4.72865e-007 0.0143484 -4.74755e-009 -15.32 6.97456 23.7361 -0 0 1.59028e-015 170.583 -23.2744 -168.019 -127.787 34.0203 -1.35093 7.02461 29.215 -1.74913 7.5085 5.51819 6.92587 128.974 -18.7554 101.15 105.341 50.2444 12.1231 -5.29261 30.3745 0.965103 -7.02708 -38.2517 5.54636 33.9356 40.4009 -33.001 41.5723 -1.50565 2.03094 -3.36952e-008 1.56033e-007 -4.88727e-009 
39.6404 88.9758 -125.544 -0.823186 0.658351 -17.0492 -10.5157 -20.3072 -12.0606 -21.8024 71.2144 11.2804 8.49008 -0.72839 0.900483 0.0462049 0.000533403 0.662642 -1.81969 19.1014 6.33561 -4.72865e-007 0.0143164 -4.74755e-009 -14.1402 6.82573 23.1074 0 3.18055e-015 -0 170.756 -22.1162 -168.117 -128.316 33.2577 -1.04529 7.04236 29.3784 -1.60729 7.27175 5.16907 6.39321 129.626 -19.0785 101.957 106.646 50.274 11.9466 -5.39081 30.2356 0.893604 -3.10917 -41.582 4.10041 31.5517 45.7231 -33.3656 46.5473 -1.04883 2.73394 -3.36952e-008 1.56033e-007 -4.88727e-009 
36.9805 85.7049 -127.862 -1.55229 1.35661 -16.3379 -11.3422 -24.2272 -14.2505 -14.9505 80.839 1.54091 2.18747 -1.99233 1.23539 0.0462049 0.000533403 0.662642 -2.15465 19.5142 6.69084 -4.72865e-007 0.0142682 -4.74756e-009 -12.6003 6.90553 22.5437 -1.19271e-015 6.36111e-015 -3.18055e-015 171.145 -20.9835 -168.467 -128.502 32.4713 -0.826222 6.99127 29.6799 -1.40859 7.05255 4.79985 5.85574 130.386 -19.2324 102.775 107.877 50.3731 11.7818 -5.49649 30.0063 0.829703 1.87448 -45.9701 1.87464 27.9178 52.2174 -32.8547 51.0943 -0.595617 3.6173 -3.36952e-008 1.56033e-007 -4.88728e-009 
34.0559 82.2078 -130.506 -2.52403 2.40202 -15.4031 -12.8451 -28.1155 -16.6554 52.0772 88.0344 -67.7585 -0.622118 -4.04739 2.07231 0.0462049 0.000533403 0.662642 -2.502 19.4148 6.77704 -4.72865e-007 0.0142077 -4.74756e-009 -10.7681 7.54337 22.3865 -7.95139e-016 -3.18055e-015 -1.59028e-015 171.623 -20.2795 -169.447 -128.347 31.7086 -0.721821 6.8639 30.0631 -1.2185 6.87014 4.79733 5.59347 131.203 -19.255 103.582 108.959 50.5444 11.654 -5.66464 29.7374 0.786654 7.05757 -50.9113 -0.509384 23.2967 58.2952 -31.3816 55.2099 0.047551 4.32573 -3.36952e-008 1.56033e-007 -4.88727e-009 
30.7805 78.8328 -133.532 -3.67128 3.75015 -14.2998 -15.1372 -31.381 -18.9308 130.365 81.3863 -147.505 -3.4093 -6.82748 2.58283 0.0462049 0.000533403 0.662642 -2.8429 18.8622 6.62104 -4.72865e-007 0.0141391 -4.74756e-009 -8.76302 8.75762 22.6044 5.29669e-031 9.54166e-015 -3.18055e-015 172.055 -20.0983 -171.227 -127.869 31.0416 -0.881853 6.60723 30.8617 -0.765736 6.72808 4.85652 5.56294 131.89 -19.2681 104.12 109.737 50.8017 11.723 -5.80597 29.511 0.72494 13.3062 -55.5418 -3.4113 14.505 62.9599 -25.6696 58.4513 0.786915 4.95504 -3.36952e-008 1.56033e-007 -4.88726e-009 
27.3999 75.6436 -136.801 -4.95976 5.38792 -13.0427 -17.6447 -34.0903 -20.8979 137.271 73.865 -155.486 -5.92247 -10.0074 2.88509 0.0462049 0.000533403 0.662642 -3.10118 17.9032 6.24845 -4.72865e-007 0.0140664 -4.74756e-009 -6.69978 10.5214 23.1001 -1.19271e-015 3.18055e-015 7.95139e-016 172.433 -20.3693 -173.69 -127.144 30.4761 -1.23592 6.37442 31.3405 -0.695999 6.62404 5.18352 5.91661 132.463 -19.2166 104.702 110.191 51.1455 11.9131 -5.8669 29.1307 0.620677 20.2567 -59.3944 -6.99692 2.75904 63.2296 -15.7072 59.6418 1.52806 5.49971 -3.36952e-008 1.56033e-007 -4.88727e-009 
23.9092 72.699 -140.266 -6.32643 7.28318 -11.6211 -20.2709 -36.1593 -22.1218 140.47 66.7807 -159.032 -5.7476 -13.3997 3.33337 0.0462049 0.000533403 0.662642 -3.23427 16.5912 5.6652 -4.72865e-007 0.0139938 -4.74755e-009 -4.69671 12.7951 23.7841 -0 0 1.59028e-015 172.719 -21.0115 -176.692 -126.274 30.0203 -1.72407 6.15428 31.9985 -0.615377 6.53747 5.74795 6.68225 132.878 -19.128 105.363 110.336 51.5786 12.2135 -5.90786 28.7572 0.651432 27.6105 -62.1419 -11.0491 -7.71464 59.1842 -5.02842 59.474 2.84416 5.90959 -3.36952e-008 1.56033e-007 -4.88727e-009 
20.3471 69.9425 -143.773 -7.71394 9.38125 -10.0358 -22.3891 -37.6663 -22.397 143.02 60.1564 -161.487 -4.18619 -17.2942 3.8958 0.0462049 0.000533403 0.662642 -3.30513 15.3209 5.23619 -4.72865e-007 0.0139251 -4.74756e-009 -2.71481 15.2023 24.23 -3.18055e-015 6.36111e-015 -1.59028e-015 173.059 -21.6488 -179.698 -125.352 29.6699 -2.28029 6.03472 32.3777 -0.776122 6.50244 6.18138 7.5202 133.116 -18.9853 106.102 110.249 52.0997 12.5917 -5.82697 28.2741 0.632868 35.1812 -63.8604 -14.9808 -15.2964 53.4751 3.49831 59.446 4.84558 6.30453 -3.36952e-008 1.56033e-007 -4.88727e-009 
16.714 67.4838 -147.333 -9.07921 11.6095 -8.29468 -23.5849 -38.6412 -21.5028 145.166 54.1676 -163 -0.595479 -21.5697 4.86759 0.0462049 0.000533403 0.662642 -3.31165 14.1058 4.94389 -4.72865e-007 0.0138647 -4.74755e-009 -0.783827 17.6976 24.4295 -2.78299e-015 0 -0 173.433 -22.2464 177.401 -124.454 29.411 -2.84232 5.99023 32.7604 -0.933536 6.48804 6.54603 8.3953 133.181 -18.7863 106.928 110.033 52.6943 13.0234 -5.71596 27.7656 0.695298 43.7936 -65.1523 -16.7543 -18.9239 46.7026 8.13515 59.2539 7.72467 6.28682 -3.36952e-008 1.56033e-007 -4.88727e-009 
12.6189 66.4413 -151.662 -10.3565 13.8542 -6.40574 -22.3682 -40.2669 -20.3917 142.363 49.6183 -160.284 1.13972 -25.1009 4.39426 0.0462049 0.000533403 0.662642 -3.30636 12.9753 4.7607 -4.72865e-007 0.0138165 -4.74756e-009 1.08455 20.2418 24.38 -2.28602e-015 0 -3.97569e-016 173.823 -22.7841 174.694 -123.636 29.2133 -3.36857 6.04063 32.8957 -1.20665 6.46429 6.90265 9.26187 133.089 -18.5313 107.835 109.791 53.3387 13.487 -5.56834 27.1721 0.714275 62.2832 -69.5507 -8.63195 -24.1462 44.1806 17.0231 33.7562 3.90513 6.4869 -3.36952e-008 1.56033e-007 -4.88727e-009 
8.70001 65.1199 -155.697 -11.5268 16.0513 -4.42568 -21.7708 -42.7599 -19.2147 142.561 46.0942 -162.134 4.31674 -29.2999 5.28958 0.0462049 0.000533403 0.662642 -3.30105 11.9346 4.69951 -4.72865e-007 0.0137845 -4.74756e-009 2.89778 22.7931 24.081 -1.49089e-016 3.18055e-015 -0 174.224 -23.2495 172.251 -122.937 29.0417 -3.82685 6.12772 32.9738 -1.43267 6.4169 7.29245 10.0709 132.861 -18.2259 108.802 109.607 54.0075 13.9656 -5.47757 26.55 0.773484 83.476 -69.2698 3.20298 -24.5496 38.0529 22.0987 7.27742 2.9917 4.76832 -3.36952e-008 1.56033e-007 -4.88727e-009 
5.08848 63.0234 -159.31 -12.538 18.1116 -2.41 -21.0939 -45.7851 -17.5856 142.543 42.7467 -163.51 9.21132 -33.6712 7.15615 0.0462049 0.000533403 0.662642 -3.38472 11.0205 4.76461 -4.72865e-007 0.013773 -4.74755e-009 4.6915 25.2957 23.5318 -5.96354e-016 3.18055e-015 3.97569e-016 174.565 -23.6155 170.129 -122.549 28.847 -4.17739 6.26356 32.6977 -1.65939 6.3965 7.8385 10.7498 132.465 -17.8974 109.813 109.681 54.6998 14.4039 -5.34038 25.7153 0.617803 98.2067 -67.945 12.4916 -24.5646 34.6232 26.2025 -8.88004 6.58821 3.27355 -3.36951e-008 1.56033e-007 -4.88727e-009 
1.92998 60.8438 -162.423 -13.3866 20.009 -0.453901 -20.8794 -48.2468 -15.7579 144.621 40.6446 -166.654 16.6245 -37.5652 11.091 0.0462049 0.000533403 0.662642 -3.54218 10.2231 4.9645 -4.72865e-007 0.0137859 -4.74755e-009 6.48909 27.6965 22.7445 -8.82781e-032 3.18055e-015 1.59028e-015 174.868 -23.8702 168.38 -122.415 28.6474 -4.34101 6.36892 32.6291 -1.76571 6.42462 8.40236 11.257 131.958 -17.6093 110.714 109.948 55.4182 14.7735 -5.62046 25.135 0.714233 111.319 -67.0226 22.9581 -26.1042 34.9127 30.2724 -21.1809 11.9971 2.85468 -3.36952e-008 1.56033e-007 -4.88727e-009 
-0.808405 58.54 -165.281 -14.0364 21.6687 1.34873 -20.3652 -50.7609 -14.3105 146.064 39.2622 -168.699 24.1698 -40.8494 15.4287 0.0462049 0.000533403 0.662642 -3.79236 9.55901 5.27867 -4.72865e-007 0.0138273 -4.74755e-009 8.3016 29.9494 21.7396 7.95139e-016 -3.18055e-015 7.95139e-016 175.177 -24.0105 167.04 -122.498 28.4641 -4.31097 6.51524 32.4277 -2.0696 6.51903 8.95035 11.5979 131.407 -17.355 111.465 110.351 56.1742 15.0746 -5.91489 24.4915 0.835291 126.017 -66.3343 36.9497 -30.3729 38.8437 34.4998 -30.4053 17.7401 2.86468 -3.36952e-008 1.56033e-007 -4.88727e-009 
-3.12807 56.278 -168.087 -14.4612 23.0241 2.90382 -19.6079 -53.5102 -13.7765 146.788 38.6333 -169.85 30.3933 -43.3768 19.2727 0.0462049 0.000533403 0.662642 -4.12848 9.03913 5.6713 -4.72865e-007 0.0139014 -4.74755e-009 10.1248 32.0139 20.5464 1.59028e-015 3.18055e-015 -0 175.522 -24.0422 166.113 -122.737 28.3093 -4.10148 6.63595 32.4088 -2.32427 6.68832 9.4535 11.7507 130.856 -17.0994 112.031 110.816 56.9611 15.3316 -6.4232 24.0593 1.12219 141.251 -64.9468 53.2984 -36.1438 44.1889 38.4457 -36.0348 23.2074 2.98305 -3.36952e-008 1.56033e-007 -4.88727e-009 
